<?xml version="1.0" encoding="utf-8"?>
<!-- Generator: Adobe Illustrator 16.0.4, SVG Export Plug-In . SVG Version: 6.00 Build 0)  -->
<!DOCTYPE svg PUBLIC "-//W3C//DTD SVG 1.1//EN" "http://www.w3.org/Graphics/SVG/1.1/DTD/svg11.dtd">
<svg version="1.1" xmlns="http://www.w3.org/2000/svg" xmlns:xlink="http://www.w3.org/1999/xlink" x="0px" y="0px"
	 width="262.605px" height="196.932px" viewBox="0 0 262.605 196.932" enable-background="new 0 0 262.605 196.932"
	 xml:space="preserve">
<g id="Layer_1" display="none">
	<polygon display="inline" fill="#00A1DF" points="308.413,814.283 337.183,856.525 337.183,814.283 398.821,814.283 
		398.821,797.769 159.481,797.769 159.481,887.915 347.908,887.915 369.958,920.292 369.958,887.915 398.821,887.915 
		398.821,822.943 379.774,822.943 379.774,871.439 369.96,871.439 369.96,822.943 346.71,822.943 346.71,871.439 337.28,871.439 
		307.933,829.583 307.933,871.439 298.405,871.439 298.405,814.283 	"/>
	<g display="inline">
		<rect x="-1017.017" y="950.331" fill="#3284BF" width="275.957" height="80.354"/>
		<polygon fill="#3284BF" points="-792.334,1077.866 -892.92,934.957 -792.334,934.973 		"/>
		<g>
			<path fill="#FFFFFF" d="M-974.681,1030.861h-9.815v-56.964c3.657-0.577,9.334-1.154,14.049-1.154
				c15.011,0,23.285,6.928,23.285,19.437c0,13.472-9.91,19.63-23.189,19.63c-1.347,0-3.079-0.097-4.329-0.192V1030.861z
				 M-974.681,1003.246c0.865,0.096,2.405,0.192,3.656,0.192c9.141,0,13.952-3.561,13.952-11.259
				c0-6.735-4.522-10.776-13.472-10.776c-1.154,0-2.887,0.096-4.137,0.289V1003.246z"/>
			<path fill="#FFFFFF" d="M-929.552,1030.861h-9.814v-57.06c3.464-0.577,9.622-1.059,14.241-1.059
				c15.011,0,23.189,6.64,23.189,18.667c0,8.371-4.715,14.434-11.354,16.936l17.224,22.516h-11.835l-15.203-20.303h-6.447V1030.861z
				 M-929.552,1002.476h4.812c7.794,0,12.798-3.367,12.798-10.776c0-6.543-4.522-10.393-13.183-10.393
				c-1.154,0-3.368,0.097-4.427,0.192V1002.476z"/>
			<path fill="#FFFFFF" d="M-879.128,1030.861h-9.815v-57.156h9.815V1030.861z"/>
			<path fill="#FFFFFF" d="M-826.109,1015.947v-42.242h9.526v57.156h-9.43l-29.348-41.856v41.856h-9.526v-57.156h10.008
				L-826.109,1015.947z"/>
			<path fill="#FFFFFF" d="M-782.518,1030.861h-9.814v-48.496h-25.553v-8.66h53.36v8.66h-17.993V1030.861z"/>
		</g>
		<g>
			<polygon fill="#0033A0" points="-764.451,884.603 -1017.016,884.603 -1017.016,973.665 -854.787,973.665 -826.181,1015.97 
				-826.181,973.665 -764.451,973.665 			"/>
		</g>
		<g>
			<path fill="#FFFFFF" d="M-984.797,901.897c4.137-0.577,10.007-1.154,14.337-1.154c13.567,0,21.649,4.907,21.649,15.877
				c0,7.024-4.715,11.835-11.161,12.797c8.179,0.674,13.663,5.485,13.663,13.76c0,10.008-7.312,16.551-25.113,16.551
				c-4.619,0-9.623-0.481-13.375-1.059V901.897z M-975.271,926.146h4.619c7.986,0,12.124-3.079,12.124-8.948
				c0-5.581-4.33-8.275-11.354-8.275c-1.636,0-3.849,0.192-5.389,0.385V926.146z M-975.271,951.356
				c1.828,0.192,3.85,0.288,5.1,0.288c9.238,0,13.953-2.982,13.953-8.948c0-6.158-5.1-8.564-12.895-8.564h-6.158V951.356z"/>
			<path fill="#FFFFFF" d="M-936.299,901.705h9.814v48.496h23.285v8.66h-33.1V901.705z"/>
			<path fill="#FFFFFF" d="M-895.98,901.705h9.814v35.892c0,10.969,5.773,13.855,14.241,13.855c4.426,0,7.89-0.385,11.258-0.962
				v-48.785h9.814v55.521c-5.292,1.443-14.241,2.598-21.072,2.598c-12.99,0-24.056-4.618-24.056-20.495V901.705z"/>
			<path fill="#FFFFFF" d="M-801.104,950.201v8.66h-35.506v-57.156h34.929v8.66h-25.21v15.396h23.382v8.468h-23.382v15.973H-801.104
				z"/>
		</g>
	</g>
	<g display="inline">
		<rect x="-1009.477" y="675.589" fill="#3284BF" width="252.484" height="95.922"/>
		<rect x="-881.447" y="756.114" fill="#0033A0" width="106.573" height="44.256"/>
		<g>
			<path fill="#FFFFFF" d="M-967.141,756.119h-9.816v-56.964c3.658-0.577,9.334-1.154,14.049-1.154
				c15.012,0,23.285,6.928,23.285,19.437c0,13.472-9.91,19.63-23.189,19.63c-1.346,0-3.078-0.097-4.328-0.192V756.119z
				 M-967.141,728.504c0.865,0.096,2.404,0.192,3.656,0.192c9.141,0,13.951-3.561,13.951-11.259c0-6.735-4.521-10.776-13.471-10.776
				c-1.154,0-2.887,0.096-4.137,0.289V728.504z"/>
			<path fill="#FFFFFF" d="M-922.012,756.119h-9.814v-57.06c3.463-0.577,9.621-1.059,14.24-1.059
				c15.012,0,23.189,6.64,23.189,18.667c0,8.371-4.715,14.434-11.354,16.936l17.223,22.516h-11.834l-15.203-20.303h-6.447V756.119z
				 M-922.012,727.733h4.811c7.795,0,12.799-3.367,12.799-10.776c0-6.543-4.523-10.393-13.184-10.393
				c-1.154,0-3.367,0.097-4.426,0.192V727.733z"/>
			<path fill="#FFFFFF" d="M-871.588,756.119h-9.816v-57.156h9.816V756.119z"/>
			<path fill="#FFFFFF" d="M-818.57,741.205v-42.242h9.527v57.156h-9.43l-29.348-41.856v41.856h-9.527v-57.156h10.008
				L-818.57,741.205z"/>
			<path fill="#FFFFFF" d="M-774.979,756.119h-9.814v-48.496h-25.553v-8.66h53.361v8.66h-17.994V756.119z"/>
		</g>
		<g>
			<polygon fill="#0033A0" points="-756.912,609.86 -1009.477,609.86 -1009.477,698.923 -847.248,698.923 -818.641,741.228 
				-818.641,698.923 -756.912,698.923 			"/>
		</g>
		<g>
			<path fill="#FFFFFF" d="M-977.258,627.155c4.137-0.577,10.008-1.154,14.338-1.154c13.566,0,21.648,4.907,21.648,15.877
				c0,7.024-4.715,11.835-11.16,12.797c8.178,0.674,13.662,5.485,13.662,13.76c0,10.008-7.312,16.551-25.113,16.551
				c-4.619,0-9.623-0.481-13.375-1.059V627.155z M-967.732,651.403h4.619c7.986,0,12.125-3.079,12.125-8.948
				c0-5.581-4.33-8.275-11.355-8.275c-1.635,0-3.848,0.192-5.389,0.385V651.403z M-967.732,676.614
				c1.828,0.192,3.85,0.288,5.1,0.288c9.238,0,13.953-2.982,13.953-8.948c0-6.158-5.1-8.564-12.895-8.564h-6.158V676.614z"/>
			<path fill="#FFFFFF" d="M-928.76,626.963h9.814v48.496h23.285v8.66h-33.1V626.963z"/>
			<path fill="#FFFFFF" d="M-888.441,626.963h9.814v35.892c0,10.969,5.773,13.855,14.242,13.855c4.426,0,7.889-0.385,11.258-0.962
				v-48.785h9.814v55.521c-5.293,1.443-14.242,2.598-21.072,2.598c-12.99,0-24.057-4.618-24.057-20.495V626.963z"/>
			<path fill="#FFFFFF" d="M-793.564,675.459v8.66h-35.506v-57.156h34.93v8.66h-25.211v15.396h23.383v8.468h-23.383v15.973H-793.564
				z"/>
		</g>
		<polyline fill="#0033A0" points="-818.48,756.123 -847.828,714.267 -847.828,756.123 		"/>
		<g>
			<path fill="#FFFFFF" d="M-864.45,783.558c-0.103-0.801-0.051-1.967-0.051-2.536l1.206-13.713h4.49l-1.23,13.834
				c-0.266,2.993,0.91,5.127,3.898,5.127c3.054,0,4.67-2.17,4.936-4.826l1.273-14.135h4.488l-1.24,13.958
				c-0.502,5.373-4.066,9.398-9.83,9.398C-861.003,790.665-863.897,787.76-864.45,783.558"/>
			<path fill="#FFFFFF" d="M-843.615,778.914c0.587-6.582,5.025-12.039,12.697-12.039c2.021,0,3.959,0.462,5.895,1.705l-0.511,5.438
				c-1.77-2.325-3.87-2.703-5.81-2.703c-4.775,0-7.394,3.313-7.768,7.511c-0.364,4.088,1.746,7.409,6.373,7.409
				c2.018,0,4.156-0.582,6.399-2.82l-0.498,5.582c-2.183,1.183-4.212,1.722-6.257,1.722
				C-840.683,790.718-844.16,785.078-843.615,778.914"/>
			<path fill="#FFFFFF" d="M-821.438,767.309h4.477l-1.635,18.62h6.416c0.45,0,1.98-0.023,2.394-0.048
				c-0.022,0.224-0.405,4.303-0.405,4.303h-13.277L-821.438,767.309z"/>
			<path fill="#FFFFFF" d="M-798.111,775.849c0.146-0.325,0.279-0.726,0.33-0.958c0-0.007,0.07-0.007,0.07-0.007
				c0.025,0.29,0.076,0.631,0.172,0.969c0.245,1.043,1.989,6.836,1.989,6.836h-5.653
				C-801.203,782.688-798.174,775.995-798.111,775.849 M-796.965,766.262l-0.311,0.003l-12.258,23.919h4.756l1.725-3.629h8.635
				l1.079,3.629h4.746L-796.965,766.262z"/>
		</g>
	</g>
	<g display="inline">
		<rect x="-1009.816" y="397.849" fill="#3284BF" width="270.725" height="80.354"/>
		<polygon fill="#3284BF" points="-790.366,525.384 -890.952,382.475 -790.366,382.49 		"/>
		<g>
			<path fill="#FFFFFF" d="M-972.712,478.379h-9.815v-57.295c3.657-0.577,9.334-0.823,14.049-0.823
				c15.011,0,23.285,6.928,23.285,19.437c0,13.472-9.91,19.63-23.189,19.63c-1.347,0-3.079-0.097-4.329-0.192V478.379z
				 M-972.712,450.764c0.865,0.096,2.405,0.192,3.656,0.192c9.141,0,13.952-3.561,13.952-11.259c0-6.735-4.522-10.776-13.472-10.776
				c-1.154,0-2.887,0.096-4.137,0.289V450.764z"/>
			<path fill="#FFFFFF" d="M-927.583,478.379h-9.814v-57.06c3.464-0.577,9.622-1.059,14.241-1.059
				c15.011,0,23.189,6.64,23.189,18.667c0,8.371-4.715,14.434-11.354,16.936l17.224,22.516h-11.835l-15.203-20.303h-6.447V478.379z
				 M-927.583,449.993h4.812c7.794,0,12.798-3.367,12.798-10.776c0-6.543-4.522-10.393-13.183-10.393
				c-1.154,0-3.368,0.097-4.427,0.192V449.993z"/>
			<path fill="#FFFFFF" d="M-877.16,478.379h-9.815v-57.156h9.815V478.379z"/>
			<path fill="#FFFFFF" d="M-824.141,463.465v-42.242h9.526v57.156h-9.43l-29.348-41.856v41.856h-9.526v-57.156h10.008
				L-824.141,463.465z"/>
			<path fill="#FFFFFF" d="M-780.549,478.379h-9.814v-48.496h-25.553v-8.66h53.36v8.66h-17.993V478.379z"/>
		</g>
		<g>
			<polygon fill="#0033A0" points="-739.12,332.12 -982.539,332.12 -982.539,421.183 -852.819,421.183 -824.212,463.487 
				-824.212,421.183 -739.12,421.183 			"/>
		</g>
		<g>
			<path fill="#FFFFFF" d="M-946.197,349.362c4.137-0.577,10.007-1.154,14.337-1.154c13.567,0,21.649,4.907,21.649,15.877
				c0,7.024-4.715,11.835-11.161,12.797c8.179,0.674,13.663,5.485,13.663,13.76c0,10.008-7.312,16.551-25.113,16.551
				c-4.619,0-9.623-0.481-13.375-1.059V349.362z M-936.671,373.61h4.619c7.986,0,12.124-3.079,12.124-8.948
				c0-5.581-4.33-8.275-11.354-8.275c-1.636,0-3.849,0.192-5.389,0.385V373.61z M-936.671,398.821c1.828,0.192,3.85,0.288,5.1,0.288
				c9.238,0,13.953-2.982,13.953-8.948c0-6.158-5.1-8.564-12.895-8.564h-6.158V398.821z"/>
			<path fill="#FFFFFF" d="M-897.699,349.17h9.814v48.496h23.285v8.66h-33.1V349.17z"/>
			<path fill="#FFFFFF" d="M-857.38,349.17h9.814v35.892c0,10.969,5.773,13.855,14.241,13.855c4.426,0,7.89-0.385,11.258-0.962
				V349.17h9.814v55.521c-5.292,1.443-14.241,2.598-21.072,2.598c-12.99,0-24.056-4.618-24.056-20.495V349.17z"/>
			<path fill="#FFFFFF" d="M-762.503,397.666v8.66h-35.506V349.17h34.929v8.66h-25.21v15.396h23.382v8.468h-23.382v15.973H-762.503z
				"/>
		</g>
		<g>
			<defs>
				<rect id="SVGID_1_" x="-1020.975" y="319.457" width="38.399" height="84.567"/>
			</defs>
			<clipPath id="SVGID_2_">
				<use xlink:href="#SVGID_1_"  overflow="visible"/>
			</clipPath>
			<path clip-path="url(#SVGID_2_)" fill="#3284BF" d="M-996.983,391.908c-0.634,0.081-1.552,0.042-2,0.042l-10.815-0.953v-3.541
				l10.909,0.97c2.361,0.21,4.044-0.716,4.044-3.073c0-2.408-1.71-3.681-3.805-3.892l-11.148-1.005v-3.539l11.006,0.979
				c4.236,0.395,7.415,3.207,7.415,7.751C-991.377,389.19-993.67,391.473-996.983,391.908"/>
			<path clip-path="url(#SVGID_2_)" fill="#3284BF" d="M-1000.646,375.48c-5.188-0.465-9.493-3.965-9.493-10.013
				c0-1.595,0.364-3.123,1.346-4.649l4.285,0.403c-1.833,1.396-2.13,3.052-2.13,4.584c0,3.763,2.613,5.828,5.923,6.124
				c3.222,0.285,5.841-1.38,5.841-5.026c0-1.589-0.456-3.278-2.224-5.047l4.402,0.393c0.934,1.721,1.358,3.323,1.358,4.934
				C-991.337,373.169-995.783,375.911-1000.646,375.48"/>
			<path clip-path="url(#SVGID_2_)" fill="#3284BF" d="M-1009.798,357.991v-3.53l14.685,1.29v-5.06c0-0.355-0.021-1.562-0.038-1.887
				c0.177,0.018,3.391,0.32,3.391,0.32v10.468L-1009.798,357.991z"/>
			<path clip-path="url(#SVGID_2_)" fill="#3284BF" d="M-1003.062,339.601c-0.256-0.117-0.572-0.222-0.755-0.261
				c-0.004-0.002-0.004-0.058-0.004-0.058c0.227-0.02,0.495-0.061,0.762-0.134c0.823-0.193,5.39-1.568,5.39-1.568v4.456
				C-997.67,342.036-1002.945,339.647-1003.062,339.601 M-1010.624,338.695l0.006,0.243l18.857,9.667v-3.753l-2.858-1.356v-6.811
				l2.858-0.851v-3.743L-1010.624,338.695z"/>
		</g>
	</g>
	<g display="inline">
		<path fill="#0033A0" d="M172.052,787.379c-0.623,0.08-1.522,0.042-1.962,0.042l-10.611-0.936v-3.474l10.704,0.952
			c2.316,0.206,3.967-0.702,3.967-3.015c0-2.363-1.678-3.611-3.733-3.818l-10.938-0.986v-3.472l10.799,0.96
			c4.156,0.387,7.274,3.146,7.274,7.604C177.552,784.713,175.303,786.952,172.052,787.379"/>
		<path fill="#0033A0" d="M168.458,771.262c-5.091-0.456-9.313-3.89-9.313-9.824c0-1.564,0.357-3.064,1.321-4.562l4.204,0.396
			c-1.798,1.37-2.09,2.994-2.09,4.498c0,3.691,2.564,5.718,5.811,6.008c3.162,0.28,5.731-1.354,5.731-4.932
			c0-1.559-0.447-3.216-2.182-4.951l4.319,0.385c0.917,1.688,1.333,3.261,1.333,4.841
			C177.591,768.994,173.229,771.685,168.458,771.262"/>
		<path fill="#0033A0" d="M159.479,754.103v-3.463l14.408,1.266v-4.964c0-0.349-0.021-1.532-0.037-1.851
			c0.173,0.018,3.327,0.314,3.327,0.314v10.27L159.479,754.103z"/>
		<path fill="#0033A0" d="M166.088,736.06c-0.251-0.115-0.561-0.217-0.741-0.256c-0.004-0.002-0.004-0.056-0.004-0.056
			c0.223-0.02,0.486-0.06,0.748-0.131c0.808-0.19,5.288-1.539,5.288-1.539v4.372C171.378,738.449,166.202,736.105,166.088,736.06
			 M158.669,735.171l0.006,0.239l18.501,9.484v-3.682l-2.804-1.331V733.2l2.804-0.834v-3.672L158.669,735.171z"/>
	</g>
	<rect x="-301.674" y="790.909" display="inline" fill="#00A1DF" width="236.34" height="94.758"/>
	<polygon display="inline" fill="#00A1DF" points="-93.04,919.849 -193.625,776.939 -93.04,776.955 	"/>
	<g display="inline">
		<path fill="#FFFFFF" d="M-275.386,871.439h-9.815v-56.468c3.657-0.577,9.334-0.823,14.049-0.823
			c15.011,0,23.285,6.101,23.285,18.609c0,13.472-9.91,19.63-23.189,19.63c-1.347,0-3.079-0.097-4.329-0.192V871.439z
			 M-275.386,843.824c0.865,0.096,2.405,0.192,3.656,0.192c9.141,0,13.952-3.561,13.952-11.259c0-6.735-4.522-10.776-13.472-10.776
			c-1.154,0-2.887,0.096-4.137,0.289V843.824z"/>
		<path fill="#FFFFFF" d="M-230.257,871.439h-9.814v-57.06c3.464-0.577,9.622-1.059,14.241-1.059
			c15.011,0,23.189,6.64,23.189,18.667c0,8.371-4.715,14.434-11.354,16.936l17.224,22.516h-11.835l-15.203-20.303h-6.447V871.439z
			 M-230.257,843.054h4.812c7.794,0,12.798-3.367,12.798-10.776c0-6.543-4.522-10.393-13.183-10.393
			c-1.154,0-3.368,0.097-4.427,0.192V843.054z"/>
		<path fill="#FFFFFF" d="M-179.833,871.439h-9.815v-57.156h9.815V871.439z"/>
		<path fill="#FFFFFF" d="M-126.815,856.525v-42.242h9.527v57.156h-9.43l-29.348-41.856v41.856h-9.527v-57.156h10.008
			L-126.815,856.525z"/>
		<path fill="#FFFFFF" d="M-83.224,871.439h-9.814v-48.496h-25.553v-8.66h53.361v8.66h-17.994V871.439z"/>
	</g>
	<g display="inline">
		<polygon fill="#0033A0" points="-41.794,725.181 -275.397,725.181 -275.397,814.243 -155.493,814.243 -126.886,856.548 
			-126.886,814.243 -41.794,814.243 		"/>
	</g>
	<g display="inline">
		<path fill="#FFFFFF" d="M-248.871,742.423c4.137-0.577,10.007-1.154,14.337-1.154c13.567,0,21.649,4.907,21.649,15.877
			c0,7.024-4.715,11.835-11.161,12.797c8.179,0.674,13.663,5.485,13.663,13.76c0,10.008-7.312,16.551-25.113,16.551
			c-4.619,0-9.623-0.481-13.375-1.059V742.423z M-239.345,766.671h4.619c7.986,0,12.124-3.079,12.124-8.948
			c0-5.581-4.33-8.275-11.354-8.275c-1.636,0-3.849,0.192-5.389,0.385V766.671z M-239.345,791.882c1.828,0.192,3.85,0.288,5.1,0.288
			c9.238,0,13.953-2.982,13.953-8.948c0-6.158-5.1-8.564-12.895-8.564h-6.158V791.882z"/>
		<path fill="#FFFFFF" d="M-200.373,742.23h9.814v48.496h23.286v8.66h-33.1V742.23z"/>
		<path fill="#FFFFFF" d="M-160.054,742.23h9.814v35.892c0,10.969,5.773,13.855,14.24,13.855c4.426,0,7.891-0.385,11.258-0.962
			V742.23h9.814v55.521c-5.291,1.443-14.24,2.598-21.072,2.598c-12.99,0-24.055-4.618-24.055-20.495V742.23z"/>
		<path fill="#FFFFFF" d="M-65.177,790.727v8.66h-35.506V742.23h34.928v8.66h-25.209v15.396h23.381v8.468h-23.381v15.973H-65.177z"
			/>
	</g>
	<g display="inline">
		<path fill="#0033A0" d="M-288.857,784.969c-0.634,0.081-1.552,0.042-2,0.042l-10.815-0.953v-3.541l10.909,0.97
			c2.361,0.21,4.044-0.716,4.044-3.073c0-2.408-1.71-3.681-3.805-3.892l-11.148-1.005v-3.539l11.006,0.979
			c4.236,0.395,7.415,3.207,7.415,7.751C-283.25,782.251-285.543,784.533-288.857,784.969"/>
		<path fill="#0033A0" d="M-292.52,768.541c-5.188-0.465-9.493-3.965-9.493-10.013c0-1.595,0.364-3.123,1.346-4.649l4.285,0.403
			c-1.833,1.396-2.13,3.052-2.13,4.584c0,3.763,2.613,5.828,5.923,6.124c3.222,0.285,5.841-1.38,5.841-5.026
			c0-1.589-0.456-3.278-2.224-5.047l4.402,0.393c0.934,1.721,1.358,3.323,1.358,4.934
			C-283.211,766.229-287.657,768.972-292.52,768.541"/>
		<path fill="#0033A0" d="M-301.671,751.052v-3.53l14.685,1.29v-5.06c0-0.355-0.021-1.562-0.038-1.887
			c0.177,0.018,3.391,0.32,3.391,0.32v10.468L-301.671,751.052z"/>
		<path fill="#0033A0" d="M-294.936,732.661c-0.256-0.117-0.572-0.222-0.755-0.261c-0.004-0.002-0.004-0.058-0.004-0.058
			c0.227-0.02,0.495-0.061,0.762-0.134c0.823-0.193,5.39-1.568,5.39-1.568v4.456C-289.543,735.097-294.819,732.708-294.936,732.661
			 M-302.497,731.756l0.006,0.243l18.857,9.667v-3.753l-2.858-1.356v-6.811l2.858-0.851v-3.743L-302.497,731.756z"/>
	</g>
	<rect x="-642.674" y="791.909" display="inline" fill="#00A1DF" width="236.34" height="93.758"/>
	<polygon display="inline" fill="#00A1DF" points="-434.039,919.849 -534.625,776.939 -434.039,776.955 	"/>
	<g display="inline">
		<path fill="#FFFFFF" d="M-616.386,871.439h-9.815v-56.468c3.657-0.577,9.334-0.823,14.049-0.823
			c15.011,0,23.285,6.101,23.285,18.609c0,13.472-9.91,19.63-23.189,19.63c-1.347,0-3.079-0.097-4.329-0.192V871.439z
			 M-616.386,843.824c0.865,0.096,2.405,0.192,3.656,0.192c9.141,0,13.952-3.561,13.952-11.259c0-6.735-4.522-10.776-13.472-10.776
			c-1.154,0-2.887,0.096-4.137,0.289V843.824z"/>
		<path fill="#FFFFFF" d="M-571.257,871.439h-9.814v-57.06c3.464-0.577,9.622-1.059,14.241-1.059
			c15.011,0,23.189,6.64,23.189,18.667c0,8.371-4.715,14.434-11.354,16.936l17.224,22.516h-11.835l-15.203-20.303h-6.447V871.439z
			 M-571.257,843.054h4.812c7.794,0,12.798-3.367,12.798-10.776c0-6.543-4.522-10.393-13.183-10.393
			c-1.154,0-3.368,0.097-4.427,0.192V843.054z"/>
		<path fill="#FFFFFF" d="M-520.833,871.439h-9.815v-57.156h9.815V871.439z"/>
		<path fill="#FFFFFF" d="M-467.814,856.525v-42.242h9.527v57.156h-9.43l-29.348-41.856v41.856h-9.527v-57.156h10.008
			L-467.814,856.525z"/>
		<path fill="#FFFFFF" d="M-424.223,871.439h-9.814v-48.496h-25.553v-8.66h53.361v8.66h-17.994V871.439z"/>
	</g>
	<g display="inline">
		<polygon fill="#0033A0" points="-382.793,728.665 -616.396,728.665 -616.396,814.243 -496.492,814.243 -467.885,856.548 
			-467.885,814.243 -382.793,814.243 		"/>
	</g>
	<g display="inline">
		<path fill="#FFFFFF" d="M-589.87,743.079c4.137-0.577,10.007-1.154,14.337-1.154c13.567,0,21.649,4.907,21.649,15.877
			c0,7.024-4.715,11.835-11.161,12.797c8.179,0.674,13.663,5.485,13.663,13.76c0,10.008-7.312,16.551-25.113,16.551
			c-4.619,0-9.623-0.481-13.375-1.059V743.079z M-580.345,767.327h4.619c7.986,0,12.124-3.079,12.124-8.948
			c0-5.581-4.33-8.275-11.354-8.275c-1.636,0-3.849,0.192-5.389,0.385V767.327z M-580.345,792.538c1.828,0.192,3.85,0.288,5.1,0.288
			c9.238,0,13.953-2.982,13.953-8.948c0-6.158-5.1-8.564-12.895-8.564h-6.158V792.538z"/>
		<path fill="#FFFFFF" d="M-541.372,742.887h9.814v48.496h23.286v8.66h-33.101V742.887z"/>
		<path fill="#FFFFFF" d="M-501.053,742.887h9.814v35.892c0,10.969,5.773,13.855,14.24,13.855c4.426,0,7.891-0.385,11.258-0.962
			v-48.785h9.814v55.521c-5.291,1.443-14.24,2.598-21.072,2.598c-12.99,0-24.055-4.618-24.055-20.495V742.887z"/>
		<path fill="#FFFFFF" d="M-406.176,791.383v8.66h-35.506v-57.156h34.928v8.66h-25.209v15.396h23.381v8.468h-23.381v15.973H-406.176
			z"/>
	</g>
	<g display="inline">
		<path fill="#0033A0" d="M-630.099,783.839c-0.622,0.08-1.522,0.042-1.962,0.042l-10.611-0.936v-3.474l10.704,0.952
			c2.315,0.206,3.968-0.702,3.968-3.015c0-2.363-1.679-3.611-3.734-3.818l-10.938-0.986v-3.472l10.799,0.96
			c4.156,0.387,7.275,3.146,7.275,7.604C-624.598,781.173-626.848,783.412-630.099,783.839"/>
		<path fill="#0033A0" d="M-633.692,767.722c-5.091-0.456-9.313-3.89-9.313-9.824c0-1.564,0.357-3.064,1.32-4.562l4.205,0.396
			c-1.799,1.37-2.091,2.994-2.091,4.498c0,3.691,2.563,5.718,5.812,6.008c3.161,0.28,5.73-1.354,5.73-4.932
			c0-1.559-0.447-3.216-2.182-4.951l4.318,0.385c0.917,1.688,1.334,3.261,1.334,4.841
			C-624.559,765.454-628.922,768.145-633.692,767.722"/>
		<path fill="#0033A0" d="M-642.672,750.563V747.1l14.408,1.266v-4.964c0-0.349-0.021-1.532-0.037-1.851
			c0.174,0.018,3.327,0.314,3.327,0.314v10.27L-642.672,750.563z"/>
		<path fill="#0033A0" d="M-636.062,732.52c-0.251-0.115-0.561-0.217-0.74-0.256c-0.005-0.002-0.005-0.056-0.005-0.056
			c0.223-0.02,0.485-0.06,0.747-0.131c0.809-0.19,5.288-1.539,5.288-1.539v4.372C-630.772,734.909-635.948,732.565-636.062,732.52
			 M-643.481,731.631l0.007,0.239l18.501,9.484v-3.682l-2.804-1.331v-6.682l2.804-0.834v-3.672L-643.481,731.631z"/>
	</g>
	<rect x="-510.758" y="871.436" display="inline" fill="none" width="14.238" height="14.239"/>
	<rect x="-510.492" y="800.045" display="inline" fill="none" width="14.238" height="14.239"/>
	<rect x="-510.492" y="728.654" display="inline" fill="none" width="14.238" height="14.239"/>
	<rect x="1338.149" y="791.909" display="inline" fill="#00A1DF" width="236.341" height="96.006"/>
	<polygon display="inline" fill="#00A1DF" points="1548.627,919.849 1449.042,776.939 1548.627,776.955 	"/>
	<g display="inline">
		<path fill="#FFFFFF" d="M1367.28,871.439h-9.814v-56.468c3.656-0.577,9.334-0.823,14.049-0.823
			c15.01,0,23.285,6.101,23.285,18.609c0,13.472-9.91,19.63-23.189,19.63c-1.348,0-3.08-0.097-4.33-0.192V871.439z M1367.28,843.824
			c0.865,0.096,2.406,0.192,3.656,0.192c9.141,0,13.953-3.561,13.953-11.259c0-6.735-4.523-10.776-13.473-10.776
			c-1.154,0-2.887,0.096-4.137,0.289V843.824z"/>
		<path fill="#FFFFFF" d="M1412.409,871.439h-9.814v-57.06c3.465-0.577,9.623-1.059,14.242-1.059c15.01,0,23.189,6.64,23.189,18.667
			c0,8.371-4.715,14.434-11.355,16.936l17.225,22.516h-11.836l-15.203-20.303h-6.447V871.439z M1412.409,843.054h4.812
			c7.793,0,12.797-3.367,12.797-10.776c0-6.543-4.521-10.393-13.182-10.393c-1.154,0-3.369,0.097-4.428,0.192V843.054z"/>
		<path fill="#FFFFFF" d="M1462.833,871.439h-9.814v-57.156h9.814V871.439z"/>
		<path fill="#FFFFFF" d="M1515.852,856.525v-42.242h9.527v57.156h-9.43l-29.348-41.856v41.856h-9.527v-57.156h10.008
			L1515.852,856.525z"/>
		<path fill="#FFFFFF" d="M1558.443,871.439h-9.814v-48.496h-24.553v-8.66h53.361v8.66h-18.994V871.439z"/>
	</g>
	<g display="inline">
		<polygon fill="#0033A0" points="1598.029,727.665 1367.271,727.665 1367.271,814.243 1487.174,814.243 1515.781,856.548 
			1515.781,814.243 1598.029,814.243 		"/>
	</g>
	<g display="inline">
		<path fill="#FFFFFF" d="M1390.796,742.079c4.137-0.577,10.008-1.154,14.338-1.154c13.566,0,21.648,4.907,21.648,15.877
			c0,7.024-4.715,11.835-11.16,12.797c8.178,0.674,13.662,5.485,13.662,13.76c0,10.008-7.312,16.551-25.113,16.551
			c-4.619,0-9.623-0.481-13.375-1.059V742.079z M1400.321,766.327h4.619c7.986,0,12.125-3.079,12.125-8.948
			c0-5.581-4.33-8.275-11.355-8.275c-1.635,0-3.848,0.192-5.389,0.385V766.327z M1400.321,791.538c1.828,0.192,3.85,0.288,5.1,0.288
			c9.238,0,13.953-2.982,13.953-8.948c0-6.158-5.1-8.564-12.895-8.564h-6.158V791.538z"/>
		<path fill="#FFFFFF" d="M1439.294,741.887h9.814v48.496h23.286v8.66h-33.101V741.887z"/>
		<path fill="#FFFFFF" d="M1479.613,741.887h9.814v35.892c0,10.969,5.773,13.855,14.24,13.855c4.426,0,7.891-0.385,11.258-0.962
			v-48.785h9.814v55.521c-5.291,1.443-14.24,2.598-21.072,2.598c-12.99,0-24.055-4.618-24.055-20.495V741.887z"/>
		<path fill="#FFFFFF" d="M1574.49,790.383v8.66h-35.506v-57.156h34.928v8.66h-25.209v15.396h23.381v8.468h-23.381v15.973H1574.49z"
			/>
	</g>
	<g display="inline">
		<path fill="#0033A0" d="M1353.567,783.839c-0.622,0.08-1.521,0.042-1.961,0.042l-10.611-0.936v-3.474l10.703,0.952
			c2.316,0.206,3.968-0.702,3.968-3.015c0-2.363-1.679-3.611-3.733-3.818l-10.938-0.986v-3.472l10.799,0.96
			c4.156,0.387,7.274,3.146,7.274,7.604C1359.068,781.173,1356.819,783.412,1353.567,783.839"/>
		<path fill="#0033A0" d="M1349.974,767.722c-5.09-0.456-9.312-3.89-9.312-9.824c0-1.564,0.357-3.064,1.32-4.562l4.204,0.396
			c-1.798,1.37-2.091,2.994-2.091,4.498c0,3.691,2.564,5.718,5.812,6.008c3.161,0.28,5.731-1.354,5.731-4.932
			c0-1.559-0.447-3.216-2.182-4.951l4.318,0.385c0.916,1.688,1.333,3.261,1.333,4.841
			C1359.107,765.454,1354.745,768.145,1349.974,767.722"/>
		<path fill="#0033A0" d="M1340.995,750.563V747.1l14.408,1.266v-4.964c0-0.349-0.021-1.532-0.037-1.851
			c0.173,0.018,3.326,0.314,3.326,0.314v10.27L1340.995,750.563z"/>
		<path fill="#0033A0" d="M1347.604,732.52c-0.252-0.115-0.562-0.217-0.741-0.256c-0.005-0.002-0.005-0.056-0.005-0.056
			c0.223-0.02,0.486-0.06,0.748-0.131c0.808-0.19,5.287-1.539,5.287-1.539v4.372C1352.894,734.909,1347.718,732.565,1347.604,732.52
			 M1340.185,731.631l0.007,0.239l18.501,9.484v-3.682l-2.804-1.331v-6.682l2.804-0.834v-3.672L1340.185,731.631z"/>
	</g>
	<rect x="1402.588" y="871.436" display="inline" fill="none" width="14.239" height="14.239"/>
	<rect x="1473.174" y="800.045" display="inline" fill="none" width="14.239" height="14.239"/>
	<rect x="1473.174" y="728.654" display="inline" fill="none" width="14.239" height="14.239"/>
	<rect x="1367.255" y="779.901" display="inline" fill="none" width="23.531" height="23.531"/>
	<rect x="1574.489" y="779.901" display="inline" fill="none" width="23.531" height="23.531"/>
	<rect x="1340.989" y="871.438" display="inline" fill="none" width="16.469" height="16.469"/>
	<rect x="162.326" y="298.909" display="inline" fill="#00A1DF" width="236.34" height="93.758"/>
	<polygon display="inline" fill="#00A1DF" points="370.96,426.849 270.375,283.939 370.96,283.955 	"/>
	<g display="inline">
		<path fill="#FFFFFF" d="M188.614,378.439h-9.815v-56.468c3.657-0.577,9.334-0.823,14.049-0.823
			c15.011,0,23.285,6.101,23.285,18.609c0,13.472-9.91,19.63-23.189,19.63c-1.347,0-3.079-0.097-4.329-0.192V378.439z
			 M188.614,350.824c0.865,0.096,2.405,0.192,3.656,0.192c9.141,0,13.952-3.561,13.952-11.259c0-6.735-4.522-10.776-13.472-10.776
			c-1.154,0-2.887,0.096-4.137,0.289V350.824z"/>
		<path fill="#FFFFFF" d="M233.743,378.439h-9.814v-57.06c3.464-0.577,9.622-1.059,14.241-1.059c15.011,0,23.189,6.64,23.189,18.667
			c0,8.371-4.715,14.434-11.354,16.936l17.224,22.516h-11.835l-15.203-20.303h-6.447V378.439z M233.743,350.054h4.812
			c7.794,0,12.798-3.367,12.798-10.776c0-6.543-4.522-10.393-13.183-10.393c-1.154,0-3.368,0.097-4.427,0.192V350.054z"/>
		<path fill="#FFFFFF" d="M284.167,378.439h-9.815v-57.156h9.815V378.439z"/>
		<path fill="#FFFFFF" d="M337.185,363.525v-42.242h9.527v57.156h-9.43l-29.348-41.856v41.856h-9.527v-57.156h10.008
			L337.185,363.525z"/>
		<path fill="#FFFFFF" d="M380.776,378.439h-9.814v-48.496h-25.553v-8.66h53.361v8.66h-17.994V378.439z"/>
	</g>
	<g display="inline">
		<polygon fill="#0033A0" points="419.362,235.665 188.603,235.665 188.603,321.243 308.507,321.243 337.114,363.548 
			337.114,321.243 419.362,321.243 		"/>
	</g>
	<g display="inline">
		<path fill="#FFFFFF" d="M212.129,250.079c4.137-0.577,10.007-1.154,14.337-1.154c13.567,0,21.649,4.907,21.649,15.877
			c0,7.024-4.715,11.835-11.161,12.797c8.179,0.674,13.663,5.485,13.663,13.76c0,10.008-7.312,16.551-25.113,16.551
			c-4.619,0-9.623-0.481-13.375-1.059V250.079z M221.655,274.327h4.619c7.986,0,12.124-3.079,12.124-8.948
			c0-5.581-4.33-8.275-11.354-8.275c-1.636,0-3.849,0.192-5.389,0.385V274.327z M221.655,299.538c1.828,0.192,3.85,0.288,5.1,0.288
			c9.238,0,13.953-2.982,13.953-8.948c0-6.158-5.1-8.564-12.895-8.564h-6.158V299.538z"/>
		<path fill="#FFFFFF" d="M260.627,249.887h9.814v48.496h23.286v8.66h-33.1V249.887z"/>
		<path fill="#FFFFFF" d="M300.946,249.887h9.814v35.892c0,10.969,5.773,13.855,14.24,13.855c4.426,0,7.891-0.385,11.258-0.962
			v-48.785h9.814v55.521c-5.291,1.443-14.24,2.598-21.072,2.598c-12.99,0-24.055-4.618-24.055-20.495V249.887z"/>
		<path fill="#FFFFFF" d="M395.823,298.383v8.66h-35.506v-57.156h34.928v8.66h-25.209v15.396h23.381v8.468h-23.381v15.973H395.823z"
			/>
	</g>
	<g display="inline">
		<path fill="#0033A0" d="M174.901,290.839c-0.623,0.08-1.522,0.042-1.962,0.042l-10.611-0.936v-3.474l10.704,0.952
			c2.316,0.206,3.967-0.702,3.967-3.015c0-2.363-1.678-3.611-3.733-3.818l-10.938-0.986v-3.472l10.799,0.96
			c4.156,0.387,7.274,3.146,7.274,7.604C180.401,288.173,178.152,290.412,174.901,290.839"/>
		<path fill="#0033A0" d="M171.307,274.722c-5.091-0.456-9.313-3.89-9.313-9.824c0-1.564,0.357-3.064,1.321-4.562l4.204,0.396
			c-1.798,1.37-2.09,2.994-2.09,4.498c0,3.691,2.564,5.718,5.811,6.008c3.162,0.28,5.731-1.354,5.731-4.932
			c0-1.559-0.447-3.216-2.182-4.951l4.319,0.385c0.917,1.688,1.333,3.261,1.333,4.841
			C180.44,272.454,176.078,275.145,171.307,274.722"/>
		<path fill="#0033A0" d="M162.328,257.563V254.1l14.408,1.266v-4.964c0-0.349-0.021-1.532-0.037-1.851
			c0.173,0.018,3.327,0.314,3.327,0.314v10.27L162.328,257.563z"/>
		<path fill="#0033A0" d="M168.937,239.52c-0.251-0.115-0.561-0.217-0.741-0.256c-0.004-0.002-0.004-0.056-0.004-0.056
			c0.223-0.02,0.486-0.06,0.748-0.131c0.808-0.19,5.288-1.539,5.288-1.539v4.372C174.227,241.909,169.051,239.565,168.937,239.52
			 M161.518,238.631l0.006,0.239l18.501,9.484v-3.682l-2.804-1.331v-6.682l2.804-0.834v-3.672L161.518,238.631z"/>
	</g>
	<rect x="223.921" y="378.436" display="inline" fill="none" width="14.239" height="14.239"/>
	<rect x="294.507" y="307.045" display="inline" fill="none" width="14.239" height="14.239"/>
	<rect x="294.507" y="235.654" display="inline" fill="none" width="14.239" height="14.239"/>
	<rect x="188.588" y="286.901" display="inline" fill="none" width="23.531" height="23.531"/>
	<rect x="395.822" y="286.901" display="inline" fill="none" width="23.531" height="23.531"/>
	<rect x="162.322" y="357.104" display="inline" fill="none" width="16.469" height="16.469"/>
	<path display="inline" fill="#FFFFFF" d="M199.332,814.589c10.886,1.632,16.8,7.598,16.8,18.169c0,13.472-9.91,19.63-23.189,19.63
		c-1.347,0-3.079-0.097-4.329-0.192v19.244h-9.815v-57.163h15.243C195.713,814.229,198.498,814.464,199.332,814.589z
		 M188.614,843.824c0.865,0.096,2.405,0.192,3.656,0.192c9.141,0,13.952-3.561,13.952-11.259c0-6.735-4.522-10.776-13.472-10.776
		c-1.154,0-2.887,0.096-4.137,0.289V843.824z"/>
	<path display="inline" fill="#FFFFFF" d="M249.462,814.962c7.761,2.684,11.897,8.482,11.897,17.026
		c0,8.371-4.715,14.434-11.354,16.936l17.224,22.516h-11.835l-15.203-20.303h-6.447v20.303h-9.814v-57.163h19.628
		C243.557,814.276,247.289,814.211,249.462,814.962z M233.743,843.054h4.812c7.794,0,12.798-3.367,12.798-10.776
		c0-6.543-4.522-10.393-13.183-10.393c-1.154,0-3.368,0.097-4.427,0.192V843.054z"/>
	<path display="inline" fill="#FFFFFF" d="M284.167,871.439h-9.815v-57.156h9.815V871.439z"/>
	<rect x="159.483" y="1366.521" display="inline" fill="#00A1DF" width="239.34" height="90.146"/>
	<g display="inline">
		<rect x="188.598" y="1296.464" fill="#0033A0" width="233.759" height="86.578"/>
	</g>
	<g display="inline">
		<path fill="#FFFFFF" d="M212.129,1310.831c4.137-0.577,10.007-1.154,14.337-1.154c13.567,0,21.649,4.907,21.649,15.877
			c0,7.024-4.715,11.835-11.161,12.797c8.179,0.674,13.663,5.485,13.663,13.76c0,10.008-7.312,16.551-25.113,16.551
			c-4.619,0-9.623-0.481-13.375-1.059V1310.831z M221.655,1335.079h4.619c7.986,0,12.124-3.079,12.124-8.948
			c0-5.581-4.33-8.275-11.354-8.275c-1.636,0-3.849,0.192-5.389,0.385V1335.079z M221.655,1360.29c1.828,0.192,3.85,0.288,5.1,0.288
			c9.238,0,13.953-2.982,13.953-8.948c0-6.158-5.1-8.564-12.895-8.564h-6.158V1360.29z"/>
		<path fill="#FFFFFF" d="M260.627,1310.639h9.814v48.496h23.286v8.66h-33.1V1310.639z"/>
		<path fill="#FFFFFF" d="M300.946,1310.639h9.814v35.892c0,10.969,5.773,13.855,14.24,13.855c4.426,0,7.891-0.385,11.258-0.962
			v-48.785h9.814v55.521c-5.291,1.443-14.24,2.598-21.072,2.598c-12.99,0-24.055-4.618-24.055-20.495V1310.639z"/>
		<path fill="#FFFFFF" d="M398.823,1359.135v8.66h-38.506v-57.156h37.928v8.66h-28.209v15.396h26.381v8.468h-26.381v15.973H398.823z
			"/>
	</g>
	<g display="inline">
		<path fill="#0033A0" d="M172.052,1356.132c-0.623,0.079-1.522,0.041-1.962,0.041l-10.611-0.936v-3.475l10.704,0.952
			c2.316,0.206,3.967-0.702,3.967-3.015c0-2.363-1.678-3.611-3.733-3.818l-10.938-0.986v-3.473l10.799,0.961
			c4.156,0.387,7.274,3.146,7.274,7.604C177.552,1353.465,175.303,1355.704,172.052,1356.132"/>
		<path fill="#0033A0" d="M168.458,1340.015c-5.091-0.457-9.313-3.891-9.313-9.824c0-1.564,0.357-3.064,1.321-4.562l4.204,0.396
			c-1.798,1.37-2.09,2.994-2.09,4.498c0,3.691,2.564,5.717,5.811,6.008c3.162,0.279,5.731-1.354,5.731-4.932
			c0-1.559-0.447-3.217-2.182-4.951l4.319,0.385c0.917,1.688,1.333,3.261,1.333,4.841
			C177.591,1337.746,173.229,1340.437,168.458,1340.015"/>
		<path fill="#0033A0" d="M159.479,1322.854v-3.463l14.408,1.266v-4.965c0-0.348-0.021-1.531-0.037-1.851
			c0.173,0.018,3.327,0.314,3.327,0.314v10.271L159.479,1322.854z"/>
		<path fill="#0033A0" d="M166.088,1304.812c-0.251-0.115-0.561-0.217-0.741-0.256c-0.004-0.002-0.004-0.057-0.004-0.057
			c0.223-0.02,0.486-0.059,0.748-0.131c0.808-0.189,5.288-1.539,5.288-1.539v4.372
			C171.378,1307.201,166.202,1304.857,166.088,1304.812 M158.669,1303.923l0.006,0.239l18.501,9.484v-3.683l-2.804-1.33v-6.682
			l2.804-0.835v-3.673L158.669,1303.923z"/>
	</g>
	<path display="inline" fill="#FFFFFF" d="M199.332,1383.341c10.886,1.632,16.8,7.598,16.8,18.169c0,13.472-9.91,19.63-23.189,19.63
		c-1.347,0-3.079-0.097-4.329-0.192v19.244h-9.815v-57.163h15.243C195.713,1382.981,198.498,1383.216,199.332,1383.341z
		 M188.614,1412.576c0.865,0.096,2.405,0.192,3.656,0.192c9.141,0,13.952-3.561,13.952-11.259c0-6.735-4.522-10.776-13.472-10.776
		c-1.154,0-2.887,0.096-4.137,0.289V1412.576z"/>
	<path display="inline" fill="#FFFFFF" d="M249.462,1383.714c7.761,2.685,11.897,8.482,11.897,17.026
		c0,8.371-4.715,14.434-11.354,16.936l17.224,22.516h-11.835l-15.203-20.303h-6.447v20.303h-9.814v-57.163h19.628
		C243.557,1383.028,247.289,1382.963,249.462,1383.714z M233.743,1411.806h4.812c7.794,0,12.798-3.367,12.798-10.776
		c0-6.543-4.522-10.393-13.183-10.393c-1.154,0-3.368,0.097-4.427,0.192V1411.806z"/>
	<path display="inline" fill="#FFFFFF" d="M284.167,1440.191h-9.815v-57.156h9.815V1440.191z"/>
	<path display="inline" fill="#FFFFFF" d="M337.185,1425.277v-42.242h9.527v57.156h-9.43l-29.348-41.856v41.856h-9.527v-57.156
		h10.008L337.185,1425.277z"/>
	<path display="inline" fill="#FFFFFF" d="M379.776,1440.191h-9.814v-48.496h-24.553v-8.66h54.174v8.66h-19.807V1440.191z"/>
	<rect x="180.736" y="1695.974" display="inline" fill="#FFFFFF" width="13.859" height="5.516"/>
	<rect x="159.483" y="1685.028" display="inline" fill="#00A1DF" width="236.34" height="90.146"/>
	<g display="inline">
		<rect x="188.598" y="1614.972" fill="#0033A0" width="230.759" height="86.578"/>
	</g>
	<g display="inline">
		<path fill="#FFFFFF" d="M212.129,1629.339c4.137-0.577,10.007-1.154,14.337-1.154c13.567,0,21.649,4.907,21.649,15.877
			c0,7.024-4.715,11.835-11.161,12.797c8.179,0.674,13.663,5.485,13.663,13.76c0,10.008-7.312,16.551-25.113,16.551
			c-4.619,0-9.623-0.481-13.375-1.059V1629.339z M221.655,1653.587h4.619c7.986,0,12.124-3.079,12.124-8.948
			c0-5.581-4.33-8.275-11.354-8.275c-1.636,0-3.849,0.192-5.389,0.385V1653.587z M221.655,1678.798
			c1.828,0.192,3.85,0.288,5.1,0.288c9.238,0,13.953-2.982,13.953-8.948c0-6.158-5.1-8.564-12.895-8.564h-6.158V1678.798z"/>
		<path fill="#FFFFFF" d="M260.627,1629.146h9.814v48.496h23.286v8.66h-33.1V1629.146z"/>
		<path fill="#FFFFFF" d="M300.946,1629.146h9.814v35.892c0,10.969,5.773,13.855,14.24,13.855c4.426,0,7.891-0.385,11.258-0.962
			v-48.785h9.814v55.521c-5.291,1.443-14.24,2.598-21.072,2.598c-12.99,0-24.055-4.618-24.055-20.495V1629.146z"/>
		<path fill="#FFFFFF" d="M395.823,1677.643v8.66h-35.506v-57.156h34.928v8.66h-25.209v15.396h23.381v8.468h-23.381v15.973H395.823z
			"/>
	</g>
	<g display="inline">
		<path fill="#0033A0" d="M172.052,1673.185c-0.623,0.08-1.522,0.042-1.962,0.042l-10.611-0.936v-3.474l10.704,0.951
			c2.316,0.206,3.967-0.702,3.967-3.016c0-2.362-1.678-3.611-3.733-3.818l-10.938-0.985v-3.472l10.799,0.959
			c4.156,0.388,7.274,3.146,7.274,7.605C177.552,1670.519,175.303,1672.758,172.052,1673.185"/>
		<path fill="#0033A0" d="M168.458,1657.067c-5.091-0.455-9.313-3.89-9.313-9.823c0-1.564,0.357-3.063,1.321-4.562l4.204,0.396
			c-1.798,1.37-2.09,2.994-2.09,4.497c0,3.691,2.564,5.719,5.811,6.009c3.162,0.28,5.731-1.354,5.731-4.932
			c0-1.559-0.447-3.216-2.182-4.951l4.319,0.385c0.917,1.688,1.333,3.261,1.333,4.841
			C177.591,1654.8,173.229,1657.49,168.458,1657.067"/>
		<path fill="#0033A0" d="M159.479,1639.909v-3.464l14.408,1.266v-4.964c0-0.35-0.021-1.532-0.037-1.852
			c0.173,0.018,3.327,0.314,3.327,0.314v10.27L159.479,1639.909z"/>
		<path fill="#0033A0" d="M166.088,1621.865c-0.251-0.114-0.561-0.218-0.741-0.256c-0.004-0.002-0.004-0.056-0.004-0.056
			c0.223-0.02,0.486-0.061,0.748-0.132c0.808-0.19,5.288-1.539,5.288-1.539v4.372
			C171.378,1624.255,166.202,1621.911,166.088,1621.865 M158.669,1620.978l0.006,0.238l18.501,9.484v-3.682l-2.804-1.331v-6.683
			l2.804-0.834v-3.672L158.669,1620.978z"/>
	</g>
	<rect x="223.921" y="1758.695" display="inline" fill="none" width="14.239" height="14.239"/>
	<rect x="294.507" y="1687.305" display="inline" fill="none" width="14.239" height="14.239"/>
	<rect x="294.507" y="1615.914" display="inline" fill="none" width="14.239" height="14.239"/>
	<rect x="188.588" y="1667.161" display="inline" fill="none" width="23.531" height="23.531"/>
	<rect x="395.822" y="1667.161" display="inline" fill="none" width="23.531" height="23.531"/>
	<rect x="162.322" y="1758.697" display="inline" fill="none" width="16.469" height="16.469"/>
	<rect x="162.322" y="1685.026" display="inline" fill="none" width="16.469" height="16.469"/>
	<path display="inline" fill="#FFFFFF" d="M199.332,1701.849c10.886,1.632,16.8,7.598,16.8,18.169c0,13.472-9.91,19.63-23.189,19.63
		c-1.347,0-3.079-0.097-4.329-0.192v19.244h-9.815v-57.21h15.243C195.713,1701.489,198.498,1701.724,199.332,1701.849z
		 M188.614,1731.084c0.865,0.096,2.405,0.192,3.656,0.192c9.141,0,13.952-3.561,13.952-11.259c0-6.735-4.522-10.776-13.472-10.776
		c-1.154,0-2.887,0.096-4.137,0.289V1731.084z"/>
	<path display="inline" fill="#FFFFFF" d="M249.462,1702.222c7.761,2.685,11.897,8.482,11.897,17.026
		c0,8.371-4.715,14.434-11.354,16.936l17.224,22.516h-11.835l-15.203-20.303h-6.447v20.303h-9.814v-57.21h19.628
		C243.557,1701.489,247.289,1701.471,249.462,1702.222z M233.743,1730.313h4.812c7.794,0,12.798-3.367,12.798-10.776
		c0-6.543-4.522-10.393-13.183-10.393c-1.154,0-3.368,0.097-4.427,0.192V1730.313z"/>
	<path display="inline" fill="#FFFFFF" d="M284.167,1758.699h-9.815v-57.156h9.815V1758.699z"/>
	<path display="inline" fill="#FFFFFF" d="M337.185,1743.785v-42.242h9.527v57.156h-9.43l-29.348-41.856v41.856h-9.527v-57.156
		h10.008L337.185,1743.785z"/>
	<path display="inline" fill="#FFFFFF" d="M379.776,1758.699h-9.814v-48.496h-24.553v-8.66h53.361v8.66h-18.994V1758.699z"/>
	<polygon display="inline" fill="#0033A0" points="422.357,727.707 188.598,727.707 188.598,814.285 308.42,814.285 
		337.185,856.521 337.185,814.285 422.357,814.285 	"/>
	<g display="inline">
		<path fill="#FFFFFF" d="M212.129,742.079c4.137-0.577,10.007-1.154,14.337-1.154c13.567,0,21.649,4.907,21.649,15.877
			c0,7.024-4.715,11.835-11.161,12.797c8.179,0.674,13.663,5.485,13.663,13.76c0,10.008-7.312,16.551-25.113,16.551
			c-4.619,0-9.623-0.481-13.375-1.059V742.079z M221.655,766.327h4.619c7.986,0,12.124-3.079,12.124-8.948
			c0-5.581-4.33-8.275-11.354-8.275c-1.636,0-3.849,0.192-5.389,0.385V766.327z M221.655,791.538c1.828,0.192,3.85,0.288,5.1,0.288
			c9.238,0,13.953-2.982,13.953-8.948c0-6.158-5.1-8.564-12.895-8.564h-6.158V791.538z"/>
		<path fill="#FFFFFF" d="M260.627,741.887h9.814v48.496h23.286v8.66h-33.1V741.887z"/>
		<path fill="#FFFFFF" d="M300.946,741.887h9.814v35.892c0,10.969,5.773,13.855,14.24,13.855c4.426,0,7.891-0.385,11.258-0.962
			v-48.785h9.814v55.521c-5.291,1.443-14.24,2.598-21.072,2.598c-12.99,0-24.055-4.618-24.055-20.495V741.887z"/>
		<path fill="#FFFFFF" d="M398.823,790.383v8.66h-38.506v-57.156h37.928v8.66h-28.209v15.396h26.381v8.468h-26.381v15.973H398.823z"
			/>
	</g>
	<polygon display="inline" fill="#00A1DF" points="1216.538,822.943 1216.538,871.439 1206.724,871.439 1206.724,822.943 
		1183.474,822.943 1183.474,871.439 1174.044,871.439 1144.696,829.583 1144.696,871.439 1135.169,871.439 1135.169,814.283 
		1145.177,814.283 1173.946,856.525 1173.946,814.283 1182.171,814.283 1183.474,814.283 1235.585,814.283 1235.585,797.769 
		996.244,797.769 996.244,887.915 1235.585,887.915 1235.585,822.943 	"/>
	<g display="inline">
		<path fill="#0033A0" d="M1008.813,787.379c-0.623,0.08-1.523,0.042-1.963,0.042l-10.61-0.936v-3.474l10.704,0.952
			c2.315,0.206,3.967-0.702,3.967-3.015c0-2.363-1.678-3.611-3.733-3.818l-10.938-0.986v-3.472l10.799,0.96
			c4.155,0.387,7.274,3.146,7.274,7.604C1014.313,784.713,1012.063,786.952,1008.813,787.379"/>
		<path fill="#0033A0" d="M1005.22,771.262c-5.092-0.456-9.314-3.89-9.314-9.824c0-1.564,0.357-3.064,1.321-4.562l4.204,0.396
			c-1.798,1.37-2.09,2.994-2.09,4.498c0,3.691,2.563,5.718,5.811,6.008c3.162,0.28,5.73-1.354,5.73-4.932
			c0-1.559-0.446-3.216-2.182-4.951l4.319,0.385c0.917,1.688,1.333,3.261,1.333,4.841
			C1014.353,768.994,1009.99,771.685,1005.22,771.262"/>
		<path fill="#0033A0" d="M996.24,754.103v-3.463l14.407,1.266v-4.964c0-0.349-0.021-1.532-0.037-1.851
			c0.174,0.018,3.328,0.314,3.328,0.314v10.27L996.24,754.103z"/>
		<path fill="#0033A0" d="M1002.849,736.06c-0.25-0.115-0.561-0.217-0.74-0.256c-0.004-0.002-0.004-0.056-0.004-0.056
			c0.223-0.02,0.485-0.06,0.747-0.131c0.808-0.19,5.288-1.539,5.288-1.539v4.372C1008.14,738.449,1002.964,736.105,1002.849,736.06
			 M995.431,735.171l0.006,0.239l18.502,9.484v-3.682l-2.805-1.331V733.2l2.805-0.834v-3.672L995.431,735.171z"/>
	</g>
	<path display="inline" fill="#FFFFFF" d="M1036.093,814.589c10.887,1.632,16.801,7.598,16.801,18.169
		c0,13.472-9.91,19.63-23.189,19.63c-1.347,0-3.079-0.097-4.329-0.192v19.244h-9.815v-57.163h15.242
		C1032.474,814.229,1035.259,814.464,1036.093,814.589z M1025.375,843.824c0.865,0.096,2.405,0.192,3.656,0.192
		c9.141,0,13.952-3.561,13.952-11.259c0-6.735-4.522-10.776-13.472-10.776c-1.154,0-2.887,0.096-4.137,0.289V843.824z"/>
	<path display="inline" fill="#FFFFFF" d="M1086.224,814.962c7.761,2.684,11.896,8.482,11.896,17.026
		c0,8.371-4.715,14.434-11.354,16.936l17.224,22.516h-11.835l-15.203-20.303h-6.447v20.303h-9.814v-57.163h19.628
		C1080.317,814.276,1084.05,814.211,1086.224,814.962z M1070.504,843.054h4.812c7.794,0,12.798-3.367,12.798-10.776
		c0-6.543-4.522-10.393-13.183-10.393c-1.154,0-3.368,0.097-4.427,0.192V843.054z"/>
	<path display="inline" fill="#FFFFFF" d="M1120.928,871.439h-9.815v-57.156h9.815V871.439z"/>
	<polygon display="inline" fill="#0033A0" points="1259.118,727.707 1025.359,727.707 1025.359,814.285 1145.181,814.285 
		1173.946,856.521 1173.946,814.285 1259.118,814.285 	"/>
	<polyline display="inline" fill="none" points="1177.954,878.056 1206.72,920.292 1206.72,869.895 	"/>
	<polyline display="inline" fill="#00A1DF" points="1187.372,887.472 1216.136,929.708 1216.136,879.311 	"/>
	<g display="inline">
		<path fill="#FFFFFF" d="M1048.891,742.079c4.137-0.577,10.007-1.154,14.337-1.154c13.567,0,21.649,4.907,21.649,15.877
			c0,7.024-4.715,11.835-11.161,12.797c8.179,0.674,13.663,5.485,13.663,13.76c0,10.008-7.312,16.551-25.113,16.551
			c-4.619,0-9.623-0.481-13.375-1.059V742.079z M1058.416,766.327h4.619c7.986,0,12.124-3.079,12.124-8.948
			c0-5.581-4.33-8.275-11.354-8.275c-1.636,0-3.849,0.192-5.389,0.385V766.327z M1058.416,791.538c1.828,0.192,3.85,0.288,5.1,0.288
			c9.238,0,13.953-2.982,13.953-8.948c0-6.158-5.1-8.564-12.895-8.564h-6.158V791.538z"/>
		<path fill="#FFFFFF" d="M1097.389,741.887h9.814v48.496h23.286v8.66h-33.101V741.887z"/>
		<path fill="#FFFFFF" d="M1137.708,741.887h9.814v35.892c0,10.969,5.773,13.855,14.24,13.855c4.426,0,7.891-0.385,11.258-0.962
			v-48.785h9.814v55.521c-5.291,1.443-14.24,2.598-21.072,2.598c-12.99,0-24.055-4.618-24.055-20.495V741.887z"/>
		<path fill="#FFFFFF" d="M1235.585,790.383v8.66h-38.506v-57.156h37.928v8.66h-28.209v15.396h26.381v8.468h-26.381v15.973H1235.585
			z"/>
	</g>
	
		<rect x="1141.51" y="749.069" transform="matrix(0.8189 -0.5739 0.5739 0.8189 -286.9661 818.6697)" display="inline" fill="none" width="24.668" height="230.028"/>
	<rect x="1173.946" y="887.95" display="inline" fill="none" width="42.195" height="42.196"/>
	<rect x="188.651" y="725.379" display="inline" fill="none" width="16.522" height="16.522"/>
</g>
<g id="Layer_2" display="none">
	<polygon display="inline" fill="#00A1DF" points="308.413,814.283 337.183,856.525 337.183,814.283 398.821,814.283 
		398.821,797.769 159.481,797.769 159.481,887.915 347.908,887.915 369.958,920.292 369.958,887.915 398.821,887.915 
		398.821,822.943 379.774,822.943 379.774,871.439 369.96,871.439 369.96,822.943 346.71,822.943 346.71,871.439 337.28,871.439 
		307.933,829.583 307.933,871.439 298.405,871.439 298.405,814.283 	"/>
	<g display="inline">
		<path fill="#0033A0" d="M172.052,787.379c-0.623,0.08-1.522,0.042-1.962,0.042l-10.611-0.936v-3.474l10.704,0.952
			c2.316,0.206,3.967-0.702,3.967-3.015c0-2.363-1.678-3.611-3.733-3.818l-10.938-0.986v-3.472l10.799,0.96
			c4.156,0.387,7.274,3.146,7.274,7.604C177.552,784.713,175.303,786.952,172.052,787.379"/>
		<path fill="#0033A0" d="M168.458,771.262c-5.091-0.456-9.313-3.89-9.313-9.824c0-1.564,0.357-3.064,1.321-4.562l4.204,0.396
			c-1.798,1.37-2.09,2.994-2.09,4.498c0,3.691,2.564,5.718,5.811,6.008c3.162,0.28,5.731-1.354,5.731-4.932
			c0-1.559-0.447-3.216-2.182-4.951l4.319,0.385c0.917,1.688,1.333,3.261,1.333,4.841
			C177.591,768.994,173.229,771.685,168.458,771.262"/>
		<path fill="#0033A0" d="M159.479,754.103v-3.463l14.408,1.266v-4.964c0-0.349-0.021-1.532-0.037-1.851
			c0.173,0.018,3.327,0.314,3.327,0.314v10.27L159.479,754.103z"/>
		<path fill="#0033A0" d="M166.088,736.06c-0.251-0.115-0.561-0.217-0.741-0.256c-0.004-0.002-0.004-0.056-0.004-0.056
			c0.223-0.02,0.486-0.06,0.748-0.131c0.808-0.19,5.288-1.539,5.288-1.539v4.372C171.378,738.449,166.202,736.105,166.088,736.06
			 M158.669,735.171l0.006,0.239l18.501,9.484v-3.682l-2.804-1.331V733.2l2.804-0.834v-3.672L158.669,735.171z"/>
	</g>
	<path display="inline" fill="#FFFFFF" d="M199.332,814.589c10.886,1.632,16.8,7.598,16.8,18.169c0,13.472-9.91,19.63-23.189,19.63
		c-1.347,0-3.079-0.097-4.329-0.192v19.244h-9.815v-57.163h15.243C195.713,814.229,198.498,814.464,199.332,814.589z
		 M188.614,843.824c0.865,0.096,2.405,0.192,3.656,0.192c9.141,0,13.952-3.561,13.952-11.259c0-6.735-4.522-10.776-13.472-10.776
		c-1.154,0-2.887,0.096-4.137,0.289V843.824z"/>
	<path display="inline" fill="#FFFFFF" d="M249.462,814.962c7.761,2.684,11.897,8.482,11.897,17.026
		c0,8.371-4.715,14.434-11.354,16.936l17.224,22.516h-11.835l-15.203-20.303h-6.447v20.303h-9.814v-57.163h19.628
		C243.557,814.276,247.289,814.211,249.462,814.962z M233.743,843.054h4.812c7.794,0,12.798-3.367,12.798-10.776
		c0-6.543-4.522-10.393-13.183-10.393c-1.154,0-3.368,0.097-4.427,0.192V843.054z"/>
	<path display="inline" fill="#FFFFFF" d="M284.167,871.439h-9.815v-57.156h9.815V871.439z"/>
	<polygon display="inline" fill="#0033A0" points="422.357,726.36 188.598,726.36 188.598,814.285 308.42,814.285 337.185,856.521 
		337.185,814.285 422.357,814.285 	"/>
	<g display="inline">
		<path fill="#FFFFFF" d="M212.129,742.079c4.137-0.577,10.007-1.154,14.337-1.154c13.567,0,21.649,4.907,21.649,15.877
			c0,7.024-4.715,11.835-11.161,12.797c8.179,0.674,13.663,5.485,13.663,13.76c0,10.008-7.312,16.551-25.113,16.551
			c-4.619,0-9.623-0.481-13.375-1.059V742.079z M221.655,766.327h4.619c7.986,0,12.124-3.079,12.124-8.948
			c0-5.581-4.33-8.275-11.354-8.275c-1.636,0-3.849,0.192-5.389,0.385V766.327z M221.655,791.538c1.828,0.192,3.85,0.288,5.1,0.288
			c9.238,0,13.953-2.982,13.953-8.948c0-6.158-5.1-8.564-12.895-8.564h-6.158V791.538z"/>
		<path fill="#FFFFFF" d="M260.627,741.887h9.814v48.496h23.286v8.66h-33.1V741.887z"/>
		<path fill="#FFFFFF" d="M300.946,741.887h9.814v35.892c0,10.969,5.773,13.855,14.24,13.855c4.426,0,7.891-0.385,11.258-0.962
			v-48.785h9.814v55.521c-5.291,1.443-14.24,2.598-21.072,2.598c-12.99,0-24.055-4.618-24.055-20.495V741.887z"/>
		<path fill="#FFFFFF" d="M398.823,790.383v8.66h-38.506v-57.156h37.928v8.66h-28.209v15.396h26.381v8.468h-26.381v15.973H398.823z"
			/>
	</g>
</g>
<g id="Layer_3" display="none">
	<polygon display="inline" fill="#00A5E5" points="308.413,814.283 337.183,856.525 337.183,814.283 398.821,814.283 
		398.821,797.769 159.481,797.769 159.481,887.915 345.908,887.915 369.958,922.292 369.958,887.915 398.821,887.915 
		398.821,822.943 379.774,822.943 379.774,871.439 369.96,871.439 369.96,822.943 346.71,822.943 346.71,871.439 337.28,871.439 
		307.933,829.583 307.933,871.439 298.405,871.439 298.405,814.283 	"/>
	<g display="inline">
		<path fill="#0054A6" d="M172.052,787.117c-0.623,0.08-1.522,0.042-1.962,0.042l-10.611-0.936v-3.474l10.704,0.952
			c2.316,0.206,3.967-0.702,3.967-3.015c0-2.363-1.678-3.611-3.733-3.818l-10.938-0.986v-3.472l10.799,0.96
			c4.156,0.387,7.274,3.146,7.274,7.604C177.552,784.451,175.303,786.69,172.052,787.117"/>
		<path fill="#0054A6" d="M168.458,771c-5.091-0.456-9.313-3.89-9.313-9.824c0-1.564,0.357-3.064,1.321-4.562l4.204,0.396
			c-1.798,1.37-2.09,2.994-2.09,4.498c0,3.691,2.564,5.718,5.811,6.008c3.162,0.28,5.731-1.354,5.731-4.932
			c0-1.559-0.447-3.216-2.182-4.951l4.319,0.385c0.917,1.688,1.333,3.261,1.333,4.841C177.591,768.732,173.229,771.422,168.458,771"
			/>
		<path fill="#0054A6" d="M159.479,753.841v-3.463l14.408,1.266v-4.964c0-0.349-0.021-1.532-0.037-1.851
			c0.173,0.018,3.327,0.314,3.327,0.314v10.27L159.479,753.841z"/>
		<path fill="#0054A6" d="M166.088,735.797c-0.251-0.115-0.561-0.217-0.741-0.256c-0.004-0.002-0.004-0.056-0.004-0.056
			c0.223-0.02,0.486-0.06,0.748-0.131c0.808-0.19,5.288-1.539,5.288-1.539v4.372C171.378,738.187,166.202,735.843,166.088,735.797
			 M158.669,734.909l0.006,0.239l18.501,9.484v-3.682l-2.804-1.331v-6.682l2.804-0.834v-3.672L158.669,734.909z"/>
	</g>
	<path display="inline" fill="#FFFFFF" d="M199.332,814.589c10.886,1.632,16.8,7.598,16.8,18.169c0,13.472-9.91,19.63-23.189,19.63
		c-1.347,0-3.079-0.097-4.329-0.192v19.244h-9.815v-57.163h15.243C195.713,814.229,198.498,814.464,199.332,814.589z
		 M188.614,843.824c0.865,0.096,2.405,0.192,3.656,0.192c9.141,0,13.952-3.561,13.952-11.259c0-6.735-4.522-10.776-13.472-10.776
		c-1.154,0-2.887,0.096-4.137,0.289V843.824z"/>
	<path display="inline" fill="#FFFFFF" d="M249.462,814.962c7.77,2.659,11.897,8.482,11.897,17.026
		c0,8.371-4.715,14.434-11.354,16.936l17.224,22.516h-11.835l-15.203-20.303h-6.447v20.303h-9.814v-57.163h18.012
		C241.94,814.276,247.229,814.198,249.462,814.962z M233.743,843.054h4.812c7.794,0,12.798-3.367,12.798-10.776
		c0-6.543-4.522-10.393-13.183-10.393c-1.154,0-3.368,0.097-4.427,0.192V843.054z"/>
	<path display="inline" fill="#FFFFFF" d="M284.167,871.439h-9.815v-57.156h9.815V871.439z"/>
	<polygon display="inline" fill="#0054A6" points="422.357,726.36 188.598,726.36 188.598,814.285 308.42,814.285 337.185,856.521 
		337.185,814.285 422.357,814.285 	"/>
	<g display="inline">
		<path fill="#FFFFFF" d="M212.129,742.079c4.137-0.577,10.007-1.154,14.337-1.154c13.567,0,21.649,4.907,21.649,15.877
			c0,7.024-4.715,11.835-11.161,12.797c8.179,0.674,13.663,5.485,13.663,13.76c0,10.008-7.312,16.551-25.113,16.551
			c-4.619,0-9.623-0.481-13.375-1.059V742.079z M221.655,766.327h4.619c7.986,0,12.124-3.079,12.124-8.948
			c0-5.581-4.33-8.275-11.354-8.275c-1.636,0-3.849,0.192-5.389,0.385V766.327z M221.655,791.538c1.828,0.192,3.85,0.288,5.1,0.288
			c9.238,0,13.953-2.982,13.953-8.948c0-6.158-5.1-8.564-12.895-8.564h-6.158V791.538z"/>
		<path fill="#FFFFFF" d="M260.627,741.887h9.814v48.496h23.286v8.66h-33.1V741.887z"/>
		<path fill="#FFFFFF" d="M300.946,741.887h9.814v35.892c0,10.969,5.773,13.855,14.24,13.855c4.426,0,7.891-0.385,11.258-0.962
			v-48.785h9.814v55.521c-5.291,1.443-14.24,2.598-21.072,2.598c-12.99,0-24.055-4.618-24.055-20.495V741.887z"/>
		<path fill="#FFFFFF" d="M398.823,790.383v8.66h-38.506v-57.156h37.928v8.66h-28.209v15.396h26.381v8.468h-26.381v15.973H398.823z"
			/>
	</g>
</g>
<g id="Layer_4" display="none">
	<polygon display="inline" fill="#00A5E5" points="188.611,814.283 188.611,797.769 159.492,797.769 159.492,887.915 
		344.919,887.915 369.969,923.292 369.969,887.915 398.832,887.915 398.832,822.943 379.785,822.943 379.785,871.439 
		369.971,871.439 369.971,822.943 346.721,822.943 346.721,871.439 336.291,871.439 307.943,830.583 307.943,871.439 
		298.416,871.439 298.416,814.283 	"/>
	<g display="inline">
		<path fill="#0054A6" d="M172.052,787.117c-0.623,0.08-1.522,0.042-1.962,0.042l-10.611-0.936v-3.474l10.704,0.952
			c2.316,0.206,3.967-0.702,3.967-3.015c0-2.363-1.678-3.611-3.733-3.818l-10.938-0.986v-3.472l10.799,0.96
			c4.156,0.387,7.274,3.146,7.274,7.604C177.552,784.451,175.303,786.69,172.052,787.117"/>
		<path fill="#0054A6" d="M168.458,771c-5.091-0.456-9.313-3.89-9.313-9.824c0-1.564,0.357-3.064,1.321-4.562l4.204,0.396
			c-1.798,1.37-2.09,2.994-2.09,4.498c0,3.691,2.564,5.718,5.811,6.008c3.162,0.28,5.731-1.354,5.731-4.932
			c0-1.559-0.447-3.216-2.182-4.951l4.319,0.385c0.917,1.688,1.333,3.261,1.333,4.841C177.591,768.732,173.229,771.422,168.458,771"
			/>
		<path fill="#0054A6" d="M159.479,753.841v-3.463l14.408,1.266v-4.964c0-0.349-0.021-1.532-0.037-1.851
			c0.173,0.018,3.327,0.314,3.327,0.314v10.27L159.479,753.841z"/>
		<path fill="#0054A6" d="M166.088,735.797c-0.251-0.115-0.561-0.217-0.741-0.256c-0.004-0.002-0.004-0.056-0.004-0.056
			c0.223-0.02,0.486-0.06,0.748-0.131c0.808-0.19,5.288-1.539,5.288-1.539v4.372C171.378,738.187,166.202,735.843,166.088,735.797
			 M158.669,734.909l0.006,0.239l18.501,9.484v-3.682l-2.804-1.331v-6.682l2.804-0.834v-3.672L158.669,734.909z"/>
	</g>
	<path display="inline" fill="#FFFFFF" d="M199.332,814.589c10.886,1.632,16.8,7.598,16.8,18.169c0,13.472-9.91,19.63-23.189,19.63
		c-1.347,0-3.079-0.097-4.329-0.192v19.244h-9.815v-57.163h15.243C195.713,814.229,198.498,814.464,199.332,814.589z
		 M188.614,843.824c0.865,0.096,2.405,0.192,3.656,0.192c9.141,0,13.952-3.561,13.952-11.259c0-6.735-4.522-10.776-13.472-10.776
		c-1.154,0-2.887,0.096-4.137,0.289V843.824z"/>
	<path display="inline" fill="#FFFFFF" d="M249.462,814.962c7.77,2.659,11.897,8.482,11.897,17.026
		c0,8.371-4.715,14.434-11.354,16.936l17.224,22.516h-11.835l-15.203-20.303h-6.447v20.303h-9.814v-57.163h18.012
		C241.94,814.276,247.229,814.198,249.462,814.962z M233.743,843.054h4.812c7.794,0,12.798-3.367,12.798-10.776
		c0-6.543-4.522-10.393-13.183-10.393c-1.154,0-3.368,0.097-4.427,0.192V843.054z"/>
	<path display="inline" fill="#FFFFFF" d="M284.167,871.439h-9.815v-57.156h9.815V871.439z"/>
	<polygon display="inline" fill="#0054A6" points="422.357,726.36 188.598,726.36 188.598,814.285 308.42,814.285 337.185,856.521 
		337.185,814.285 422.357,814.285 	"/>
	<g display="inline">
		<path fill="#FFFFFF" d="M212.129,742.079c4.137-0.577,10.007-1.154,14.337-1.154c13.567,0,21.649,4.907,21.649,15.877
			c0,7.024-4.715,11.835-11.161,12.797c8.179,0.674,13.663,5.485,13.663,13.76c0,10.008-7.312,16.551-25.113,16.551
			c-4.619,0-9.623-0.481-13.375-1.059V742.079z M221.655,766.327h4.619c7.986,0,12.124-3.079,12.124-8.948
			c0-5.581-4.33-8.275-11.354-8.275c-1.636,0-3.849,0.192-5.389,0.385V766.327z M221.655,791.538c1.828,0.192,3.85,0.288,5.1,0.288
			c9.238,0,13.953-2.982,13.953-8.948c0-6.158-5.1-8.564-12.895-8.564h-6.158V791.538z"/>
		<path fill="#FFFFFF" d="M260.627,741.887h9.814v48.496h23.286v8.66h-33.1V741.887z"/>
		<path fill="#FFFFFF" d="M300.946,741.887h9.814v35.892c0,10.969,5.773,13.855,14.24,13.855c4.426,0,7.891-0.385,11.258-0.962
			v-48.785h9.814v55.521c-5.291,1.443-14.24,2.598-21.072,2.598c-12.99,0-24.055-4.618-24.055-20.495V741.887z"/>
		<path fill="#FFFFFF" d="M398.823,790.383v8.66h-38.506v-57.156h37.928v8.66h-28.209v15.396h26.381v8.468h-26.381v15.973H398.823z"
			/>
	</g>
</g>
<g id="Layer_5" display="none">
	<polygon display="inline" fill="#00A5E5" points="188.611,814.283 188.611,797.769 159.492,797.769 159.492,887.915 
		344.919,887.915 369.969,923.292 369.969,887.915 398.832,887.915 398.832,823.943 379.785,823.943 379.785,871.439 
		369.971,871.439 369.971,823.943 346.721,823.943 346.721,871.439 336.291,871.439 307.943,830.583 307.943,871.439 
		298.416,871.439 298.416,814.283 	"/>
	<g display="inline">
		<path fill="#0054A6" d="M172.052,787.117c-0.623,0.08-1.522,0.042-1.962,0.042l-10.611-0.936v-3.474l10.704,0.952
			c2.316,0.206,3.967-0.702,3.967-3.015c0-2.363-1.678-3.611-3.733-3.818l-10.938-0.986v-3.472l10.799,0.96
			c4.156,0.387,7.274,3.146,7.274,7.604C177.552,784.451,175.303,786.69,172.052,787.117"/>
		<path fill="#0054A6" d="M168.458,771c-5.091-0.456-9.313-3.89-9.313-9.824c0-1.564,0.357-3.064,1.321-4.562l4.204,0.396
			c-1.798,1.37-2.09,2.994-2.09,4.498c0,3.691,2.564,5.718,5.811,6.008c3.162,0.28,5.731-1.354,5.731-4.932
			c0-1.559-0.447-3.216-2.182-4.951l4.319,0.385c0.917,1.688,1.333,3.261,1.333,4.841C177.591,768.732,173.229,771.422,168.458,771"
			/>
		<path fill="#0054A6" d="M159.479,753.841v-3.463l14.408,1.266v-4.964c0-0.349-0.021-1.532-0.037-1.851
			c0.173,0.018,3.327,0.314,3.327,0.314v10.27L159.479,753.841z"/>
		<path fill="#0054A6" d="M166.088,735.797c-0.251-0.115-0.561-0.217-0.741-0.256c-0.004-0.002-0.004-0.056-0.004-0.056
			c0.223-0.02,0.486-0.06,0.748-0.131c0.808-0.19,5.288-1.539,5.288-1.539v4.372C171.378,738.187,166.202,735.843,166.088,735.797
			 M158.669,734.909l0.006,0.239l18.501,9.484v-3.682l-2.804-1.331v-6.682l2.804-0.834v-3.672L158.669,734.909z"/>
	</g>
	<path display="inline" fill="#FFFFFF" d="M199.332,814.589c10.886,1.632,16.8,7.598,16.8,18.169c0,13.472-9.91,19.63-23.189,19.63
		c-1.347,0-3.079-0.097-4.329-0.192v19.244h-9.815v-57.163h15.243C195.713,814.229,198.498,814.464,199.332,814.589z
		 M188.614,842.824c0.865,0.096,2.405,0.192,3.656,0.192c9.141,0,13.952-2.561,13.952-10.259c0-6.735-4.522-9.776-13.472-9.776
		c-1.154,0-2.887,0.096-4.137,0.289V842.824z"/>
	<path display="inline" fill="#FFFFFF" d="M249.462,814.962c7.77,2.659,11.897,8.482,11.897,17.026
		c0,8.371-4.715,14.434-11.354,16.936l17.224,22.516h-11.835l-15.203-20.303h-6.447v20.303h-9.814v-57.163h18.012
		C241.94,814.276,247.229,814.198,249.462,814.962z M233.743,842.054h4.812c7.794,0,12.798-2.367,12.798-9.776
		c0-6.543-4.522-9.393-13.183-9.393c-1.154,0-3.368,0.097-4.427,0.192V842.054z"/>
	<path display="inline" fill="#FFFFFF" d="M284.167,871.439h-9.815v-57.156h9.815V871.439z"/>
	<polygon display="inline" fill="#0054A6" points="422.357,726.36 188.598,726.36 188.598,814.285 308.42,814.285 337.185,856.521 
		337.185,814.285 422.357,814.285 	"/>
	<g display="inline">
		<path fill="#FFFFFF" d="M212.129,742.079c4.137-0.577,10.007-1.154,14.337-1.154c13.567,0,21.649,4.907,21.649,15.877
			c0,7.024-4.715,11.835-11.161,12.797c8.179,0.674,13.663,5.485,13.663,13.76c0,10.008-7.312,16.551-25.113,16.551
			c-4.619,0-9.623-0.481-13.375-1.059V742.079z M221.655,766.327h4.619c7.986,0,12.124-3.079,12.124-8.948
			c0-5.581-4.33-8.275-11.354-8.275c-1.636,0-3.849,0.192-5.389,0.385V766.327z M221.655,791.538c1.828,0.192,3.85,0.288,5.1,0.288
			c9.238,0,13.953-2.982,13.953-8.948c0-6.158-5.1-8.564-12.895-8.564h-6.158V791.538z"/>
		<path fill="#FFFFFF" d="M260.627,741.887h9.814v48.496h23.286v8.66h-33.1V741.887z"/>
		<path fill="#FFFFFF" d="M300.946,741.887h9.814v35.892c0,10.969,5.773,13.855,14.24,13.855c4.426,0,7.891-0.385,11.258-0.962
			v-48.785h9.814v55.521c-5.291,1.443-14.24,2.598-21.072,2.598c-12.99,0-24.055-4.618-24.055-20.495V741.887z"/>
		<path fill="#FFFFFF" d="M398.823,790.383v8.66h-38.506v-57.156h37.928v8.66h-28.209v15.396h26.381v8.468h-26.381v15.973H398.823z"
			/>
	</g>
</g>
<g id="Layer_6" display="none">
	<polygon display="inline" fill="#00A5E5" points="188.611,814.283 188.611,797.769 159.492,797.769 159.492,887.915 
		344.919,887.915 369.969,923.292 369.969,887.915 398.832,887.915 398.832,823.943 379.785,823.943 379.785,871.439 
		369.971,871.439 369.971,823.943 346.721,823.943 346.721,871.439 336.291,871.439 307.943,830.583 307.943,871.439 
		298.416,871.439 298.416,814.283 	"/>
	<g display="inline">
		<path fill="#0054A6" d="M172.052,787.117c-0.623,0.08-1.522,0.042-1.962,0.042l-10.611-0.936v-3.474l10.704,0.952
			c2.316,0.206,3.967-0.702,3.967-3.015c0-2.363-1.678-3.611-3.733-3.818l-10.938-0.986v-3.472l10.799,0.96
			c4.156,0.387,7.274,3.146,7.274,7.604C177.552,784.451,175.303,786.69,172.052,787.117"/>
		<path fill="#0054A6" d="M168.458,771c-5.091-0.456-9.313-3.89-9.313-9.824c0-1.564,0.357-3.064,1.321-4.562l4.204,0.396
			c-1.798,1.37-2.09,2.994-2.09,4.498c0,3.691,2.564,5.718,5.811,6.008c3.162,0.28,5.731-1.354,5.731-4.932
			c0-1.559-0.447-3.216-2.182-4.951l4.319,0.385c0.917,1.688,1.333,3.261,1.333,4.841C177.591,768.732,173.229,771.422,168.458,771"
			/>
		<path fill="#0054A6" d="M159.479,753.841v-3.463l14.408,1.266v-4.964c0-0.349-0.021-1.532-0.037-1.851
			c0.173,0.018,3.327,0.314,3.327,0.314v10.27L159.479,753.841z"/>
		<path fill="#0054A6" d="M166.088,735.797c-0.251-0.115-0.561-0.217-0.741-0.256c-0.004-0.002-0.004-0.056-0.004-0.056
			c0.223-0.02,0.486-0.06,0.748-0.131c0.808-0.19,5.288-1.539,5.288-1.539v4.372C171.378,738.187,166.202,735.843,166.088,735.797
			 M158.669,734.909l0.006,0.239l18.501,9.484v-3.682l-2.804-1.331v-6.682l2.804-0.834v-3.672L158.669,734.909z"/>
	</g>
	<path display="inline" fill="#FFFFFF" d="M199.332,814.589c10.886,1.632,16.8,7.598,16.8,18.169c0,13.472-9.91,19.63-23.189,19.63
		c-1.347,0-3.079-0.097-4.329-0.192v19.244h-9.815v-57.163h15.243C195.713,814.229,198.498,814.464,199.332,814.589z
		 M188.614,843.824c0.865,0.096,2.405,0.192,3.656,0.192c9.141,0,13.952-3.561,13.952-11.259c0-6.735-4.522-10.776-13.472-10.776
		c-1.154,0-2.887,0.096-4.137,0.289V843.824z"/>
	<path fill="#FFFFFF" d="M249.462,814.962c7.77,2.659,11.897,8.482,11.897,17.026c0,8.371-4.715,14.434-11.354,16.936l17.224,22.516
		h-11.835l-15.203-20.303h-6.447v20.303h-9.814v-57.163h18.012C241.94,814.276,247.229,814.198,249.462,814.962z M233.743,843.054
		h4.812c7.794,0,12.798-3.367,12.798-10.776c0-6.543-4.522-10.393-13.183-10.393c-1.154,0-3.368,0.097-4.427,0.192V843.054z"/>
	<path display="inline" fill="#FFFFFF" d="M267.228,871.439l-16.447-21.501c6.409-2.932,10.477-8.555,10.477-17.181
		c0-10.571-5.914-16.537-16.8-18.169c-0.834-0.125-3.619-0.359-5.291-0.312h-15.243v57.163h9.815v-19.244
		c1.25,0.096,2.982,0.192,4.329,0.192c1.013,0,2.003-0.04,2.975-0.112l14.351,19.164H267.228z M237.395,844.017
		c-1.251,0-2.791-0.097-3.656-0.192v-21.554c1.25-0.193,2.982-0.289,4.137-0.289c8.949,0,13.472,4.041,13.472,10.776
		C251.347,840.456,246.536,844.017,237.395,844.017z"/>
	<path display="inline" fill="#FFFFFF" d="M284.167,871.439h-9.815v-57.156h9.815V871.439z"/>
	<polygon display="inline" fill="#0054A6" points="422.357,726.36 188.598,726.36 188.598,814.285 308.42,814.285 337.185,856.521 
		337.185,814.285 422.357,814.285 	"/>
	<g display="inline">
		<path fill="#FFFFFF" d="M212.129,742.079c4.137-0.577,10.007-1.154,14.337-1.154c13.567,0,21.649,4.907,21.649,15.877
			c0,7.024-4.715,11.835-11.161,12.797c8.179,0.674,13.663,5.485,13.663,13.76c0,10.008-7.312,16.551-25.113,16.551
			c-4.619,0-9.623-0.481-13.375-1.059V742.079z M221.655,766.327h4.619c7.986,0,12.124-3.079,12.124-8.948
			c0-5.581-4.33-8.275-11.354-8.275c-1.636,0-3.849,0.192-5.389,0.385V766.327z M221.655,791.538c1.828,0.192,3.85,0.288,5.1,0.288
			c9.238,0,13.953-2.982,13.953-8.948c0-6.158-5.1-8.564-12.895-8.564h-6.158V791.538z"/>
		<path fill="#FFFFFF" d="M260.627,741.887h9.814v48.496h23.286v8.66h-33.1V741.887z"/>
		<path fill="#FFFFFF" d="M300.946,741.887h9.814v35.892c0,10.969,5.773,13.855,14.24,13.855c4.426,0,8.532-0.385,11.899-0.962
			v-48.785h9.814v55.521c-5.291,1.443-14.882,2.598-21.714,2.598c-12.99,0-24.055-4.618-24.055-20.495V741.887z"/>
		<path fill="#FFFFFF" d="M398.823,790.383v8.66h-37.864v-57.156h37.286v8.66h-27.567v15.396h25.739v8.468h-25.739v15.973H398.823z"
			/>
	</g>
</g>
<g id="Layer_7">
	<polygon fill="#00A5E5" points="28.859,87.924 28.859,71.409 -0.26,71.409 -0.26,161.556 185.167,161.556 210.216,196.933 
		210.216,161.556 239.08,161.556 239.08,97.584 220.033,97.584 220.033,145.08 210.218,145.08 210.218,97.584 186.968,97.584 
		186.968,145.08 176.539,145.08 148.191,104.224 148.191,145.08 138.664,145.08 138.664,87.924 	"/>
	<g>
		<path fill="#0054A6" d="M12.299,60.758c-0.623,0.079-1.522,0.041-1.962,0.041l-10.611-0.936V56.39l10.704,0.951
			c2.316,0.206,3.967-0.702,3.967-3.015c0-2.363-1.678-3.611-3.733-3.818l-10.938-0.986V46.05l10.799,0.96
			c4.156,0.387,7.274,3.146,7.274,7.604C17.8,58.091,15.55,60.33,12.299,60.758"/>
		<path fill="#0054A6" d="M8.706,44.641c-5.091-0.456-9.313-3.891-9.313-9.824c0-1.564,0.357-3.063,1.321-4.562l4.204,0.396
			c-1.798,1.37-2.09,2.994-2.09,4.498c0,3.691,2.564,5.718,5.811,6.008c3.162,0.28,5.731-1.354,5.731-4.932
			c0-1.559-0.447-3.216-2.182-4.951l4.319,0.385c0.917,1.688,1.333,3.261,1.333,4.841C17.839,42.372,13.477,45.062,8.706,44.641"/>
		<path fill="#0054A6" d="M-0.273,27.481v-3.464l14.408,1.266v-4.964c0-0.349-0.021-1.532-0.037-1.852
			c0.173,0.018,3.327,0.314,3.327,0.314v10.271L-0.273,27.481z"/>
		<path fill="#0054A6" d="M6.335,9.438C6.084,9.323,5.774,9.221,5.595,9.182C5.59,9.18,5.59,9.126,5.59,9.126
			c0.223-0.02,0.486-0.06,0.748-0.132c0.808-0.189,5.288-1.539,5.288-1.539v4.372C11.625,11.827,6.45,9.483,6.335,9.438
			 M-1.083,8.55l0.006,0.238l18.501,9.484v-3.682L14.62,13.26V6.578l2.804-0.835V2.071L-1.083,8.55z"/>
	</g>
	<path fill="#FFFFFF" d="M39.58,88.229c10.886,1.632,16.8,7.598,16.8,18.169c0,13.472-9.91,19.63-23.189,19.63
		c-1.347,0-3.079-0.097-4.329-0.192v19.244h-9.815V87.917h15.243C35.96,87.87,38.746,88.104,39.58,88.229z M28.861,117.465
		c0.865,0.096,2.405,0.192,3.656,0.192c9.141,0,13.952-3.561,13.952-11.259c0-6.735-4.522-10.776-13.472-10.776
		c-1.154,0-2.887,0.096-4.137,0.289V117.465z"/>
	<path display="none" fill="#FFFFFF" d="M249.462,814.962c7.77,2.659,11.897,8.482,11.897,17.026
		c0,8.371-4.715,14.434-11.354,16.936l17.224,22.516h-11.835l-15.203-20.303h-6.447v20.303h-9.814v-57.163h18.012
		C241.94,814.276,247.229,814.198,249.462,814.962z M233.743,843.054h4.812c7.794,0,12.798-3.367,12.798-10.776
		c0-6.543-4.522-10.393-13.183-10.393c-1.154,0-3.368,0.097-4.427,0.192V843.054z"/>
	<path fill="#FFFFFF" d="M107.476,145.08l-16.447-21.501c6.409-2.933,10.477-8.555,10.477-17.181c0-10.571-5.914-16.537-16.8-18.169
		c-0.834-0.125-3.619-0.359-5.291-0.312H64.171v57.163h9.815v-19.244c1.25,0.096,2.982,0.192,4.329,0.192
		c1.013,0,2.003-0.04,2.975-0.112l14.351,19.164H107.476z M77.643,117.657c-1.251,0-2.791-0.097-3.656-0.192V95.911
		c1.25-0.193,2.982-0.289,4.137-0.289c8.949,0,13.472,4.041,13.472,10.776C91.595,114.097,86.783,117.657,77.643,117.657z"/>
	<path fill="#FFFFFF" d="M124.414,145.08h-9.815V87.924h9.815V145.08z"/>
	<polygon fill="#FFFFFF" points="239.075,97.584 220.028,97.584 220.028,145.08 210.213,145.08 210.213,97.584 186.963,97.584 
		186.963,145.08 176.534,145.08 148.186,104.224 148.186,145.08 138.659,145.08 138.659,87.925 148.663,87.925 177.427,130.161 
		177.427,87.925 239.07,87.925 	"/>
	<polygon fill="#0054A6" points="262.605,0 28.846,0 28.846,87.925 148.667,87.925 177.432,130.161 177.432,87.925 262.605,87.925 	
		"/>
	<g>
		<path fill="#FFFFFF" d="M52.377,15.72c4.137-0.577,10.007-1.154,14.337-1.154c13.567,0,21.649,4.907,21.649,15.877
			c0,7.024-4.715,11.835-11.161,12.797c8.179,0.674,13.663,5.485,13.663,13.76c0,10.008-7.312,16.551-25.113,16.551
			c-4.619,0-9.623-0.481-13.375-1.059V15.72z M61.902,39.968h4.619c7.986,0,12.124-3.079,12.124-8.948
			c0-5.581-4.33-8.275-11.354-8.275c-1.636,0-3.849,0.192-5.389,0.385V39.968z M61.902,65.179c1.828,0.192,3.85,0.288,5.1,0.288
			c9.238,0,13.953-2.982,13.953-8.948c0-6.158-5.1-8.564-12.895-8.564h-6.158V65.179z"/>
		<path fill="#FFFFFF" d="M100.875,15.527h9.814v48.496h23.286v8.66h-33.1V15.527z"/>
		<path fill="#FFFFFF" d="M141.194,15.527h9.814v35.892c0,10.969,5.773,13.855,14.24,13.855c4.426,0,8.532-0.385,11.899-0.962
			V15.527h9.814v55.521c-5.291,1.443-14.882,2.598-21.714,2.598c-12.99,0-24.055-4.618-24.055-20.495V15.527z"/>
		<path fill="#FFFFFF" d="M239.071,64.023v8.66h-37.864V15.527h37.286v8.66h-27.567v15.396h25.739v8.468h-25.739v15.973H239.071z"/>
	</g>
</g>
</svg>
